# Blender v3.0.0 OBJ File: ''
# www.blender.org
mtllib generated_plane.mtl
o Pyramid_Plane
v -6.091900 0.000000 -6.091900
v -6.091900 0.000000 6.091900
v 6.091900 0.000000 -6.091900
v 6.091900 0.000000 6.091900
v -6.091900 -0.060919 -6.091900
v -6.091900 -0.060919 6.091900
v 6.091900 -0.060919 -6.091900
v 6.091900 -0.060919 6.091900
v -6.091900 0.000000 4.873520
v -6.091900 0.000000 6.091900
v -4.873520 0.000000 4.873520
v -4.873520 0.000000 6.091900
v -5.482710 0.000000 5.178115
v -5.482710 0.000000 5.787305
v -4.873520 0.000000 4.873520
v -4.873520 0.000000 6.091900
v -2.436760 0.000000 4.873520
v -2.436760 0.000000 6.091900
v -3.655140 0.000000 5.178115
v -3.655140 0.000000 5.787305
v -2.436760 0.000000 4.873520
v -2.436760 0.000000 6.091900
v 0.000000 0.000000 4.873520
v 0.000000 0.000000 6.091900
v -1.218380 0.000000 5.178115
v -1.218380 0.000000 5.787305
v 0.000000 0.000000 4.873520
v 0.000000 0.000000 6.091900
v 2.436760 0.000000 4.873520
v 2.436760 0.000000 6.091900
v 1.218380 0.000000 5.178115
v 1.218380 0.000000 5.787305
v 2.436760 0.000000 4.873520
v 2.436760 0.000000 6.091900
v 4.873520 0.000000 4.873520
v 4.873520 0.000000 6.091900
v 3.655140 0.000000 5.178115
v 3.655140 0.000000 5.787305
v 4.873520 0.000000 4.873520
v 4.873520 0.000000 6.091900
v 6.091900 0.000000 4.873520
v 6.091900 0.000000 6.091900
v 5.482710 0.000000 5.178115
v 5.482710 0.000000 5.787305
v -6.091900 0.000000 3.655140
v -6.091900 0.000000 4.873520
v -3.655140 0.000000 3.655140
v -3.655140 0.000000 4.873520
v -4.873520 0.000000 3.959735
v -4.873520 0.000000 4.568925
v -3.655140 0.000000 3.655140
v -3.655140 0.000000 4.873520
v -1.218380 0.000000 3.655140
v -1.218380 0.000000 4.873520
v -2.436760 0.000000 3.959735
v -2.436760 0.000000 4.568925
v -1.218380 0.000000 3.655140
v -1.218380 0.000000 4.873520
v 1.218380 0.000000 3.655140
v 1.218380 0.000000 4.873520
v 0.000000 0.000000 3.959735
v 0.000000 0.000000 4.568925
v 1.218380 0.000000 3.655140
v 1.218380 0.000000 4.873520
v 3.655140 0.000000 3.655140
v 3.655140 0.000000 4.873520
v 2.436760 0.000000 3.959735
v 2.436760 0.000000 4.568925
v 3.655140 0.000000 3.655140
v 3.655140 0.000000 4.873520
v 6.091900 0.000000 3.655140
v 6.091900 0.000000 4.873520
v 4.873520 0.000000 3.959735
v 4.873520 0.000000 4.568925
v -6.091900 0.000000 2.436760
v -6.091900 0.000000 3.655140
v -4.873520 0.000000 2.436760
v -4.873520 0.000000 3.655140
v -5.482710 0.000000 2.741355
v -5.482710 0.000000 3.350545
v -4.873520 0.000000 2.436760
v -4.873520 0.000000 3.655140
v -2.436760 0.000000 2.436760
v -2.436760 0.000000 3.655140
v -3.655140 0.000000 2.741355
v -3.655140 0.000000 3.350545
v -2.436760 0.000000 2.436760
v -2.436760 0.000000 3.655140
v 0.000000 0.000000 2.436760
v 0.000000 0.000000 3.655140
v -1.218380 0.000000 2.741355
v -1.218380 0.000000 3.350545
v 0.000000 0.000000 2.436760
v 0.000000 0.000000 3.655140
v 2.436760 0.000000 2.436760
v 2.436760 0.000000 3.655140
v 1.218380 0.000000 2.741355
v 1.218380 0.000000 3.350545
v 2.436760 0.000000 2.436760
v 2.436760 0.000000 3.655140
v 4.873520 0.000000 2.436760
v 4.873520 0.000000 3.655140
v 3.655140 0.000000 2.741355
v 3.655140 0.000000 3.350545
v 4.873520 0.000000 2.436760
v 4.873520 0.000000 3.655140
v 6.091900 0.000000 2.436760
v 6.091900 0.000000 3.655140
v 5.482710 0.000000 2.741355
v 5.482710 0.000000 3.350545
v -6.091900 0.000000 1.218380
v -6.091900 0.000000 2.436760
v -3.655140 0.000000 1.218380
v -3.655140 0.000000 2.436760
v -4.873520 0.000000 1.522975
v -4.873520 0.000000 2.132165
v -3.655140 0.000000 1.218380
v -3.655140 0.000000 2.436760
v -1.218380 0.000000 1.218380
v -1.218380 0.000000 2.436760
v -2.436760 0.000000 1.522975
v -2.436760 0.000000 2.132165
v -1.218380 0.000000 1.218380
v -1.218380 0.000000 2.436760
v 1.218380 0.000000 1.218380
v 1.218380 0.000000 2.436760
v 0.000000 0.000000 1.522975
v 0.000000 0.000000 2.132165
v 1.218380 0.000000 1.218380
v 1.218380 0.000000 2.436760
v 3.655140 0.000000 1.218380
v 3.655140 0.000000 2.436760
v 2.436760 0.000000 1.522975
v 2.436760 0.000000 2.132165
v 3.655140 0.000000 1.218380
v 3.655140 0.000000 2.436760
v 6.091900 0.000000 1.218380
v 6.091900 0.000000 2.436760
v 4.873520 0.000000 1.522975
v 4.873520 0.000000 2.132165
v -6.091900 0.000000 0.000000
v -6.091900 0.000000 1.218380
v -4.873520 0.000000 0.000000
v -4.873520 0.000000 1.218380
v -5.482710 0.000000 0.304595
v -5.482710 0.000000 0.913785
v -4.873520 0.000000 0.000000
v -4.873520 0.000000 1.218380
v -2.436760 0.000000 0.000000
v -2.436760 0.000000 1.218380
v -3.655140 0.000000 0.304595
v -3.655140 0.000000 0.913785
v -2.436760 0.000000 0.000000
v -2.436760 0.000000 1.218380
v 0.000000 0.000000 0.000000
v 0.000000 0.000000 1.218380
v -1.218380 0.000000 0.304595
v -1.218380 0.000000 0.913785
v 0.000000 0.000000 0.000000
v 0.000000 0.000000 1.218380
v 2.436760 0.000000 0.000000
v 2.436760 0.000000 1.218380
v 1.218380 0.000000 0.304595
v 1.218380 0.000000 0.913785
v 2.436760 0.000000 0.000000
v 2.436760 0.000000 1.218380
v 4.873520 0.000000 0.000000
v 4.873520 0.000000 1.218380
v 3.655140 0.000000 0.304595
v 3.655140 0.000000 0.913785
v 4.873520 0.000000 0.000000
v 4.873520 0.000000 1.218380
v 6.091900 0.000000 0.000000
v 6.091900 0.000000 1.218380
v 5.482710 0.000000 0.304595
v 5.482710 0.000000 0.913785
v -6.091900 0.000000 -1.218380
v -6.091900 0.000000 0.000000
v -3.655140 0.000000 -1.218380
v -3.655140 0.000000 0.000000
v -4.873520 0.000000 -0.913785
v -4.873520 0.000000 -0.304595
v -3.655140 0.000000 -1.218380
v -3.655140 0.000000 0.000000
v -1.218380 0.000000 -1.218380
v -1.218380 0.000000 0.000000
v -2.436760 0.000000 -0.913785
v -2.436760 0.000000 -0.304595
v -1.218380 0.000000 -1.218380
v -1.218380 0.000000 0.000000
v 1.218380 0.000000 -1.218380
v 1.218380 0.000000 0.000000
v 0.000000 0.000000 -0.913785
v 0.000000 0.000000 -0.304595
v 1.218380 0.000000 -1.218380
v 1.218380 0.000000 0.000000
v 3.655140 0.000000 -1.218380
v 3.655140 0.000000 0.000000
v 2.436760 0.000000 -0.913785
v 2.436760 0.000000 -0.304595
v 3.655140 0.000000 -1.218380
v 3.655140 0.000000 0.000000
v 6.091900 0.000000 -1.218380
v 6.091900 0.000000 0.000000
v 4.873520 0.000000 -0.913785
v 4.873520 0.000000 -0.304595
v -6.091900 0.000000 -2.436760
v -6.091900 0.000000 -1.218380
v -4.873520 0.000000 -2.436760
v -4.873520 0.000000 -1.218380
v -5.482710 0.000000 -2.132165
v -5.482710 0.000000 -1.522975
v -4.873520 0.000000 -2.436760
v -4.873520 0.000000 -1.218380
v -2.436760 0.000000 -2.436760
v -2.436760 0.000000 -1.218380
v -3.655140 0.000000 -2.132165
v -3.655140 0.000000 -1.522975
v -2.436760 0.000000 -2.436760
v -2.436760 0.000000 -1.218380
v 0.000000 0.000000 -2.436760
v 0.000000 0.000000 -1.218380
v -1.218380 0.000000 -2.132165
v -1.218380 0.000000 -1.522975
v 0.000000 0.000000 -2.436760
v 0.000000 0.000000 -1.218380
v 2.436760 0.000000 -2.436760
v 2.436760 0.000000 -1.218380
v 1.218380 0.000000 -2.132165
v 1.218380 0.000000 -1.522975
v 2.436760 0.000000 -2.436760
v 2.436760 0.000000 -1.218380
v 4.873520 0.000000 -2.436760
v 4.873520 0.000000 -1.218380
v 3.655140 0.000000 -2.132165
v 3.655140 0.000000 -1.522975
v 4.873520 0.000000 -2.436760
v 4.873520 0.000000 -1.218380
v 6.091900 0.000000 -2.436760
v 6.091900 0.000000 -1.218380
v 5.482710 0.000000 -2.132165
v 5.482710 0.000000 -1.522975
v -6.091900 0.000000 -3.655140
v -6.091900 0.000000 -2.436760
v -3.655140 0.000000 -3.655140
v -3.655140 0.000000 -2.436760
v -4.873520 0.000000 -3.350545
v -4.873520 0.000000 -2.741355
v -3.655140 0.000000 -3.655140
v -3.655140 0.000000 -2.436760
v -1.218380 0.000000 -3.655140
v -1.218380 0.000000 -2.436760
v -2.436760 0.000000 -3.350545
v -2.436760 0.000000 -2.741355
v -1.218380 0.000000 -3.655140
v -1.218380 0.000000 -2.436760
v 1.218380 0.000000 -3.655140
v 1.218380 0.000000 -2.436760
v 0.000000 0.000000 -3.350545
v 0.000000 0.000000 -2.741355
v 1.218380 0.000000 -3.655140
v 1.218380 0.000000 -2.436760
v 3.655140 0.000000 -3.655140
v 3.655140 0.000000 -2.436760
v 2.436760 0.000000 -3.350545
v 2.436760 0.000000 -2.741355
v 3.655140 0.000000 -3.655140
v 3.655140 0.000000 -2.436760
v 6.091900 0.000000 -3.655140
v 6.091900 0.000000 -2.436760
v 4.873520 0.000000 -3.350545
v 4.873520 0.000000 -2.741355
v -6.091900 0.000000 -4.873520
v -6.091900 0.000000 -3.655140
v -4.873520 0.000000 -4.873520
v -4.873520 0.000000 -3.655140
v -5.482710 0.000000 -4.568925
v -5.482710 0.000000 -3.959735
v -4.873520 0.000000 -4.873520
v -4.873520 0.000000 -3.655140
v -2.436760 0.000000 -4.873520
v -2.436760 0.000000 -3.655140
v -3.655140 0.000000 -4.568925
v -3.655140 0.000000 -3.959735
v -2.436760 0.000000 -4.873520
v -2.436760 0.000000 -3.655140
v 0.000000 0.000000 -4.873520
v 0.000000 0.000000 -3.655140
v -1.218380 0.000000 -4.568925
v -1.218380 0.000000 -3.959735
v 0.000000 0.000000 -4.873520
v 0.000000 0.000000 -3.655140
v 2.436760 0.000000 -4.873520
v 2.436760 0.000000 -3.655140
v 1.218380 0.000000 -4.568925
v 1.218380 0.000000 -3.959735
v 2.436760 0.000000 -4.873520
v 2.436760 0.000000 -3.655140
v 4.873520 0.000000 -4.873520
v 4.873520 0.000000 -3.655140
v 3.655140 0.000000 -4.568925
v 3.655140 0.000000 -3.959735
v 4.873520 0.000000 -4.873520
v 4.873520 0.000000 -3.655140
v 6.091900 0.000000 -4.873520
v 6.091900 0.000000 -3.655140
v 5.482710 0.000000 -4.568925
v 5.482710 0.000000 -3.959735
v -6.091900 0.000000 -6.091900
v -6.091900 0.000000 -4.873520
v -3.655140 0.000000 -6.091900
v -3.655140 0.000000 -4.873520
v -4.873520 0.000000 -5.787305
v -4.873520 0.000000 -5.178115
v -3.655140 0.000000 -6.091900
v -3.655140 0.000000 -4.873520
v -1.218380 0.000000 -6.091900
v -1.218380 0.000000 -4.873520
v -2.436760 0.000000 -5.787305
v -2.436760 0.000000 -5.178115
v -1.218380 0.000000 -6.091900
v -1.218380 0.000000 -4.873520
v 1.218380 0.000000 -6.091900
v 1.218380 0.000000 -4.873520
v 0.000000 0.000000 -5.787305
v 0.000000 0.000000 -5.178115
v 1.218380 0.000000 -6.091900
v 1.218380 0.000000 -4.873520
v 3.655140 0.000000 -6.091900
v 3.655140 0.000000 -4.873520
v 2.436760 0.000000 -5.787305
v 2.436760 0.000000 -5.178115
v 3.655140 0.000000 -6.091900
v 3.655140 0.000000 -4.873520
v 6.091900 0.000000 -6.091900
v 6.091900 0.000000 -4.873520
v 4.873520 0.000000 -5.787305
v 4.873520 0.000000 -5.178115
vn 0.0000 -1.0000 0.0000
vn -1.0000 0.0000 0.0000
vn 0.0000 0.0000 1.0000
vn 1.0000 0.0000 0.0000
vn 0.0000 0.0000 -1.0000
vn 0.0000 1.0000 0.0000
usemtl None
s off
f 5//1 7//1 8//1 6//1
f 1//2 5//2 6//2 2//2
f 6//3 8//3 4//3 2//3
f 3//4 4//4 8//4 7//4
f 1//5 3//5 7//5 5//5
f 13//6 11//6 9//6
f 10//6 12//6 14//6
f 10//6 14//6 13//6 9//6
f 13//6 14//6 12//6 11//6
f 19//6 17//6 15//6
f 16//6 18//6 20//6
f 16//6 20//6 19//6 15//6
f 19//6 20//6 18//6 17//6
f 25//6 23//6 21//6
f 22//6 24//6 26//6
f 22//6 26//6 25//6 21//6
f 25//6 26//6 24//6 23//6
f 31//6 29//6 27//6
f 28//6 30//6 32//6
f 28//6 32//6 31//6 27//6
f 31//6 32//6 30//6 29//6
f 37//6 35//6 33//6
f 34//6 36//6 38//6
f 34//6 38//6 37//6 33//6
f 37//6 38//6 36//6 35//6
f 43//6 41//6 39//6
f 40//6 42//6 44//6
f 40//6 44//6 43//6 39//6
f 43//6 44//6 42//6 41//6
f 49//6 47//6 45//6
f 46//6 48//6 50//6
f 46//6 50//6 49//6 45//6
f 49//6 50//6 48//6 47//6
f 55//6 53//6 51//6
f 52//6 54//6 56//6
f 52//6 56//6 55//6 51//6
f 55//6 56//6 54//6 53//6
f 61//6 59//6 57//6
f 58//6 60//6 62//6
f 58//6 62//6 61//6 57//6
f 61//6 62//6 60//6 59//6
f 67//6 65//6 63//6
f 64//6 66//6 68//6
f 64//6 68//6 67//6 63//6
f 67//6 68//6 66//6 65//6
f 73//6 71//6 69//6
f 70//6 72//6 74//6
f 70//6 74//6 73//6 69//6
f 73//6 74//6 72//6 71//6
f 79//6 77//6 75//6
f 76//6 78//6 80//6
f 76//6 80//6 79//6 75//6
f 79//6 80//6 78//6 77//6
f 85//6 83//6 81//6
f 82//6 84//6 86//6
f 82//6 86//6 85//6 81//6
f 85//6 86//6 84//6 83//6
f 91//6 89//6 87//6
f 88//6 90//6 92//6
f 88//6 92//6 91//6 87//6
f 91//6 92//6 90//6 89//6
f 97//6 95//6 93//6
f 94//6 96//6 98//6
f 94//6 98//6 97//6 93//6
f 97//6 98//6 96//6 95//6
f 103//6 101//6 99//6
f 100//6 102//6 104//6
f 100//6 104//6 103//6 99//6
f 103//6 104//6 102//6 101//6
f 109//6 107//6 105//6
f 106//6 108//6 110//6
f 106//6 110//6 109//6 105//6
f 109//6 110//6 108//6 107//6
f 115//6 113//6 111//6
f 112//6 114//6 116//6
f 112//6 116//6 115//6 111//6
f 115//6 116//6 114//6 113//6
f 121//6 119//6 117//6
f 118//6 120//6 122//6
f 118//6 122//6 121//6 117//6
f 121//6 122//6 120//6 119//6
f 127//6 125//6 123//6
f 124//6 126//6 128//6
f 124//6 128//6 127//6 123//6
f 127//6 128//6 126//6 125//6
f 133//6 131//6 129//6
f 130//6 132//6 134//6
f 130//6 134//6 133//6 129//6
f 133//6 134//6 132//6 131//6
f 139//6 137//6 135//6
f 136//6 138//6 140//6
f 136//6 140//6 139//6 135//6
f 139//6 140//6 138//6 137//6
f 145//6 143//6 141//6
f 142//6 144//6 146//6
f 142//6 146//6 145//6 141//6
f 145//6 146//6 144//6 143//6
f 151//6 149//6 147//6
f 148//6 150//6 152//6
f 148//6 152//6 151//6 147//6
f 151//6 152//6 150//6 149//6
f 157//6 155//6 153//6
f 154//6 156//6 158//6
f 154//6 158//6 157//6 153//6
f 157//6 158//6 156//6 155//6
f 163//6 161//6 159//6
f 160//6 162//6 164//6
f 160//6 164//6 163//6 159//6
f 163//6 164//6 162//6 161//6
f 169//6 167//6 165//6
f 166//6 168//6 170//6
f 166//6 170//6 169//6 165//6
f 169//6 170//6 168//6 167//6
f 175//6 173//6 171//6
f 172//6 174//6 176//6
f 172//6 176//6 175//6 171//6
f 175//6 176//6 174//6 173//6
f 181//6 179//6 177//6
f 178//6 180//6 182//6
f 178//6 182//6 181//6 177//6
f 181//6 182//6 180//6 179//6
f 187//6 185//6 183//6
f 184//6 186//6 188//6
f 184//6 188//6 187//6 183//6
f 187//6 188//6 186//6 185//6
f 193//6 191//6 189//6
f 190//6 192//6 194//6
f 190//6 194//6 193//6 189//6
f 193//6 194//6 192//6 191//6
f 199//6 197//6 195//6
f 196//6 198//6 200//6
f 196//6 200//6 199//6 195//6
f 199//6 200//6 198//6 197//6
f 205//6 203//6 201//6
f 202//6 204//6 206//6
f 202//6 206//6 205//6 201//6
f 205//6 206//6 204//6 203//6
f 211//6 209//6 207//6
f 208//6 210//6 212//6
f 208//6 212//6 211//6 207//6
f 211//6 212//6 210//6 209//6
f 217//6 215//6 213//6
f 214//6 216//6 218//6
f 214//6 218//6 217//6 213//6
f 217//6 218//6 216//6 215//6
f 223//6 221//6 219//6
f 220//6 222//6 224//6
f 220//6 224//6 223//6 219//6
f 223//6 224//6 222//6 221//6
f 229//6 227//6 225//6
f 226//6 228//6 230//6
f 226//6 230//6 229//6 225//6
f 229//6 230//6 228//6 227//6
f 235//6 233//6 231//6
f 232//6 234//6 236//6
f 232//6 236//6 235//6 231//6
f 235//6 236//6 234//6 233//6
f 241//6 239//6 237//6
f 238//6 240//6 242//6
f 238//6 242//6 241//6 237//6
f 241//6 242//6 240//6 239//6
f 247//6 245//6 243//6
f 244//6 246//6 248//6
f 244//6 248//6 247//6 243//6
f 247//6 248//6 246//6 245//6
f 253//6 251//6 249//6
f 250//6 252//6 254//6
f 250//6 254//6 253//6 249//6
f 253//6 254//6 252//6 251//6
f 259//6 257//6 255//6
f 256//6 258//6 260//6
f 256//6 260//6 259//6 255//6
f 259//6 260//6 258//6 257//6
f 265//6 263//6 261//6
f 262//6 264//6 266//6
f 262//6 266//6 265//6 261//6
f 265//6 266//6 264//6 263//6
f 271//6 269//6 267//6
f 268//6 270//6 272//6
f 268//6 272//6 271//6 267//6
f 271//6 272//6 270//6 269//6
f 277//6 275//6 273//6
f 274//6 276//6 278//6
f 274//6 278//6 277//6 273//6
f 277//6 278//6 276//6 275//6
f 283//6 281//6 279//6
f 280//6 282//6 284//6
f 280//6 284//6 283//6 279//6
f 283//6 284//6 282//6 281//6
f 289//6 287//6 285//6
f 286//6 288//6 290//6
f 286//6 290//6 289//6 285//6
f 289//6 290//6 288//6 287//6
f 295//6 293//6 291//6
f 292//6 294//6 296//6
f 292//6 296//6 295//6 291//6
f 295//6 296//6 294//6 293//6
f 301//6 299//6 297//6
f 298//6 300//6 302//6
f 298//6 302//6 301//6 297//6
f 301//6 302//6 300//6 299//6
f 307//6 305//6 303//6
f 304//6 306//6 308//6
f 304//6 308//6 307//6 303//6
f 307//6 308//6 306//6 305//6
f 313//6 311//6 309//6
f 310//6 312//6 314//6
f 310//6 314//6 313//6 309//6
f 313//6 314//6 312//6 311//6
f 319//6 317//6 315//6
f 316//6 318//6 320//6
f 316//6 320//6 319//6 315//6
f 319//6 320//6 318//6 317//6
f 325//6 323//6 321//6
f 322//6 324//6 326//6
f 322//6 326//6 325//6 321//6
f 325//6 326//6 324//6 323//6
f 331//6 329//6 327//6
f 328//6 330//6 332//6
f 328//6 332//6 331//6 327//6
f 331//6 332//6 330//6 329//6
f 337//6 335//6 333//6
f 334//6 336//6 338//6
f 334//6 338//6 337//6 333//6
f 337//6 338//6 336//6 335//6
